HIERARCHY
ROOT Hips
{
	OFFSET -3.958830 18.904000 13.208200
	CHANNELS 6 Xposition Yposition Zposition Zrotation Yrotation Xrotation 
	JOINT LHipJoint
	{
		OFFSET 0.000000 0.000000 0.000000
		CHANNELS 3 Zrotation Yrotation Xrotation
		JOINT LeftUpLeg
		{
			OFFSET 1.800000 -1.400000 0.085000
			CHANNELS 3 Zrotation Yrotation Xrotation
			JOINT LeftLeg
			{
				OFFSET 2.215000 -6.000000 0.000000
				CHANNELS 3 Zrotation Yrotation Xrotation
				JOINT LeftFoot
				{
					OFFSET 2.500000 -6.900000 0.000000
					CHANNELS 3 Zrotation Yrotation Xrotation
					JOINT LeftToeBase
					{
						OFFSET 0.200000 -0.500000 1.950000
						CHANNELS 3 Zrotation Yrotation Xrotation
						End Site
						{
							OFFSET 0.000000 0.000000 0.000000
						}
					}
				}
			}
		}
	}
	JOINT RHipJoint
	{
		OFFSET 0.000000 0.000000 0.000000
		CHANNELS 3 Zrotation Yrotation Xrotation
		JOINT RightUpLeg
		{
			OFFSET -1.800000 -1.400000 0.085000
			CHANNELS 3 Zrotation Yrotation Xrotation
			JOINT RightLeg
			{
				OFFSET -2.215000 -6.000000 0.000000
				CHANNELS 3 Zrotation Yrotation Xrotation
				JOINT RightFoot
				{
					OFFSET -2.500000 -6.900000 0.000000
					CHANNELS 3 Zrotation Yrotation Xrotation
					JOINT RightToeBase
					{
						OFFSET -0.200000 -0.500000 1.950000
						CHANNELS 3 Zrotation Yrotation Xrotation
						End Site
						{
							OFFSET 0.000000 0.000000 0.000000
						}
					}
				}
			}
		}
	}
	JOINT LowerBack
	{
		OFFSET 0.000000 0.000000 0.000000
		CHANNELS 3 Zrotation Yrotation Xrotation
		JOINT Spine
		{
			OFFSET -0.087000 1.940000 -0.288900
			CHANNELS 3 Zrotation Yrotation Xrotation
			JOINT Spine1
			{
				OFFSET 0.000000 1.950000 0.060000
				CHANNELS 3 Zrotation Yrotation Xrotation
				JOINT Neck
				{
					OFFSET 0.000000 0.000000 0.000000
					CHANNELS 3 Zrotation Yrotation Xrotation
					JOINT Neck1
					{
						OFFSET 0.000000 1.600000 0.340000
						CHANNELS 3 Zrotation Yrotation Xrotation
						JOINT Head
						{
							OFFSET 0.000000 1.667000 -0.240000
							CHANNELS 3 Zrotation Yrotation Xrotation
							End Site
							{
								OFFSET 0.000000 0.000000 0.000000
							}
						}
					}
				}
				JOINT LeftShoulder
				{
					OFFSET 0.000000 0.000000 0.000000
					CHANNELS 3 Zrotation Yrotation Xrotation
					JOINT LeftArm
					{
						OFFSET 2.700000 1.550000 -0.730000
						CHANNELS 3 Zrotation Yrotation Xrotation
						JOINT LeftForeArm
						{
							OFFSET 5.450000 0.000000 0.000000
							CHANNELS 3 Zrotation Yrotation Xrotation
							JOINT LeftHand
							{
								OFFSET 3.450000 0.000000 0.000000
								CHANNELS 3 Zrotation Yrotation Xrotation
								JOINT LeftHandIndex1
								{
									OFFSET 0.750000 0.000000 0.000000
									CHANNELS 3 Zrotation Yrotation Xrotation
									End Site
									{
										OFFSET 0.000000 0.000000 0.000000
									}
								}
							}
						}
					}
				}
				JOINT RightShoulder
				{
					OFFSET 0.000000 0.000000 0.000000
					CHANNELS 3 Zrotation Yrotation Xrotation
					JOINT RightArm
					{
						OFFSET -2.700000 1.550000 -0.730000
						CHANNELS 3 Zrotation Yrotation Xrotation
						JOINT RightForeArm
						{
							OFFSET -5.450000 0.000000 0.000000
							CHANNELS 3 Zrotation Yrotation Xrotation
							JOINT RightHand
							{
								OFFSET -3.450000 0.000000 0.000000
								CHANNELS 3 Zrotation Yrotation Xrotation
								JOINT RightHandIndex1
								{
									OFFSET -0.750000 0.000000 0.000000
									CHANNELS 3 Zrotation Yrotation Xrotation
									End Site
									{
										OFFSET 0.000000 0.000000 0.000000
									}
								}
							}
						}
					}
				}
			}
		}
	}
}
MOTION
Frames: 9
Frame Time: 0.016667
-0.201910 17.369490 -3.617350 -4.221331 -16.198164 1.195142 -14.995334 13.598906 3.379477 4.689410 -1.143009 -13.859708 -8.435508 4.410305 4.321996 -0.356926 3.287725 3.469629 0.264260 0.055670 0.139770 18.293071 -10.558490 3.277217 0.837891 0.367451 -6.814391 8.847495 -4.443548 5.897542 -0.468081 -3.023031 3.409733 -0.084550 0.038740 0.094260 -3.593974 -2.612867 -8.201025 16.241168 -2.198535 22.996704 -12.602121 3.020105 -0.844984 9.432707 -9.291054 -12.048127 -24.624555 13.032081 50.886070 -1.285890 1.680120 -12.842100 -21.301585 2.656975 -0.732824 -52.298368 4.523902 -7.664706 -20.239976 -14.954290 -0.180367 -3.501281 2.721574 0.687190 -0.197830 0.178270 0.086290 2.188708 7.502227 8.457428 16.854462 -7.287434 -10.196369 -92.776202 59.314060 -54.713569 1.511997 0.023648 -0.091350 0.279350 0.101990 -0.136430 
-0.190310 17.362690 -3.627640 -4.287213 -16.229092 1.214387 -14.994946 13.593184 3.385361 4.821867 -1.149706 -14.025040 -8.647068 4.476195 4.532467 -0.357549 3.317285 3.457598 0.264560 0.051430 0.145520 18.288181 -10.568123 3.281058 0.802365 0.475001 -7.036963 9.009701 -4.471902 6.113179 -0.458988 -3.032413 3.403506 -0.083430 0.042340 0.104690 -3.584499 -2.576749 -8.220073 16.255308 -2.189340 23.172917 -12.612664 3.085989 -1.087802 9.550108 -9.157874 -11.686755 -23.605709 12.464121 50.355801 -1.567600 1.931250 -12.740470 -21.718914 2.405309 -0.572980 -51.945978 4.769192 -7.755303 -20.234259 -15.414586 -0.150850 -3.508448 2.741518 0.677410 -0.183970 0.170230 0.083470 2.295061 7.799827 7.777952 15.461754 -6.839830 -11.035701 -84.212628 59.992897 -46.285170 1.435074 -0.097302 -0.090410 0.266520 0.102080 -0.141800 
-0.173940 17.356740 -3.646000 -4.383052 -16.619118 1.319047 -15.014069 13.615771 3.408906 5.023423 -1.153739 -14.388605 -9.097886 4.614671 4.873167 -0.369870 3.390651 3.437498 0.244570 0.027360 0.130700 18.262550 -10.553198 3.273992 0.948409 0.649328 -7.497687 8.877681 -4.453658 6.532357 -0.424952 -3.009908 3.416651 -0.081480 0.068640 0.101760 -3.510758 -2.622142 -8.243582 16.063334 -2.079474 23.686228 -12.420561 3.354049 -1.898270 9.746620 -9.196264 -11.208319 -22.713324 11.898984 49.152844 -2.048940 2.326610 -12.262430 -22.651086 2.403578 -0.544772 -51.463421 5.406630 -7.988588 -19.848380 -16.440605 -0.117810 -3.527653 2.746766 0.664490 -0.155470 0.140730 0.081810 2.719906 8.206526 6.955840 12.892537 -5.560459 -11.349480 -68.028400 57.946175 -32.459120 1.561258 -0.594006 -0.113320 0.270310 0.116010 -0.149950 
-0.160830 17.337220 -3.665430 -4.788967 -16.865695 1.468307 -15.021571 13.637305 3.409132 5.540605 -1.130181 -15.023030 -9.453019 4.814459 5.631818 -0.369820 3.470162 3.416684 0.239980 0.019710 0.140550 18.248189 -10.545914 3.285041 1.401695 0.836149 -7.853383 8.721408 -4.440834 7.053947 -0.397305 -3.005653 3.421893 -0.073760 0.092100 0.110520 -3.470918 -2.631644 -8.260683 16.239943 -1.927522 24.147090 -12.304508 3.706631 -2.384646 9.953909 -8.824360 -10.546282 -20.732810 10.623705 47.449487 -3.129890 2.804000 -11.751970 -24.613516 2.061166 -0.779991 -49.820337 5.777757 -7.951177 -19.630551 -16.847479 -0.090052 -3.550519 2.769788 0.629430 -0.115640 0.113530 0.083750 4.060069 8.415989 6.411743 8.923051 -4.029719 -10.137149 -53.185993 51.977143 -20.846783 1.777806 -1.010369 -0.121000 0.263760 0.112060 -0.155700 
-0.152370 17.303950 -3.693600 -5.019337 -16.932655 1.647567 -15.008004 13.616696 3.400896 5.954264 -1.160122 -16.080723 -9.937980 5.112366 6.950809 -0.392271 3.577625 3.390085 0.221740 0.007260 0.116840 18.257736 -10.574821 3.285368 1.822918 1.095632 -8.529621 8.512325 -4.460524 7.938214 -0.359929 -3.016918 3.422001 -0.056810 0.148420 0.117480 -3.502131 -2.522402 -8.236941 16.466112 -1.857454 24.108299 -12.141035 3.856992 -1.860694 9.930034 -8.377431 -10.128883 -18.769491 9.486877 45.152501 -3.804000 3.173330 -10.834750 -26.173480 0.943528 -0.635686 -48.689175 5.807062 -8.066586 -18.986927 -17.480752 -0.148408 -3.587565 2.791897 0.591740 -0.057790 0.071450 0.099000 5.535344 9.096432 6.148045 4.388109 -1.928649 -8.527065 -41.252237 43.914770 -12.505591 1.918433 -1.219288 -0.147240 0.274710 0.120860 -0.151850 
-0.146100 17.275310 -3.722850 -5.385299 -17.346816 1.763470 -15.006075 13.655581 3.384069 6.514787 -1.172288 -17.498873 -10.161333 5.538835 9.130492 -0.388742 3.698408 3.342987 0.230070 0.015190 0.122220 18.248969 -10.571709 3.303058 2.203727 1.428185 -9.116095 8.669406 -4.532227 8.882543 -0.345824 -3.028761 3.421767 -0.047130 0.169030 0.132600 -3.482698 -2.540942 -8.223525 16.713311 -1.856803 24.720134 -12.025349 4.104031 -1.807299 10.071933 -8.085547 -10.088640 -17.527865 8.764838 43.317241 -4.563290 3.576040 -10.611600 -27.559789 -0.034411 -0.532139 -47.911935 5.957834 -8.284469 -18.107088 -17.982261 -0.247322 -3.595346 2.821899 0.566780 -0.027200 0.057380 0.115310 6.583079 10.015165 6.288422 1.658847 0.155175 -7.453666 -35.341830 35.955770 -8.345232 2.012201 -1.297006 -0.146140 0.268270 0.108710 -0.149590 
-0.146870 17.246110 -3.764410 -5.478371 -17.916327 1.690849 -15.042563 13.728901 3.416271 7.116859 -1.221283 -19.438910 -10.626755 6.227994 12.152182 -0.353529 3.922482 3.232231 0.230280 0.023390 0.137110 18.198921 -10.537238 3.300030 2.474481 1.790056 -9.796929 8.588728 -4.599434 10.178694 -0.327252 -3.014322 3.420009 -0.046940 0.159280 0.146790 -3.339284 -2.686484 -8.258761 15.949420 -1.564793 25.843965 -11.480707 4.556122 -2.297606 10.293277 -7.391441 -10.103852 -15.734511 7.898526 42.489294 -5.748910 4.074780 -10.587230 -29.238735 -1.124746 -0.469602 -46.965627 6.018034 -8.154866 -16.921338 -16.940650 -0.467183 -3.601678 2.835428 0.539510 -0.010220 0.060050 0.109310 7.847120 11.015926 6.477655 0.987046 1.763696 -7.292905 -34.785692 30.378658 -7.141262 2.082702 -1.324875 -0.129800 0.245510 0.098080 -0.150300 
-0.155080 17.203470 -3.811670 -5.773204 -18.683996 1.839213 -15.085089 13.755217 3.495398 8.079327 -1.269903 -22.092829 -11.147117 7.168651 15.848591 -0.310164 4.318475 3.057707 0.213750 0.006640 0.120750 18.159782 -10.463505 3.287487 3.169628 2.263683 -10.802619 8.211250 -4.665173 11.998840 -0.308007 -2.986510 3.422183 -0.060390 0.167540 0.157280 -3.210069 -2.845051 -8.300330 15.377179 -1.215453 26.802878 -10.675289 5.119168 -2.742191 10.302996 -7.158801 -10.439594 -15.190359 7.508923 41.634466 -6.238880 4.233940 -10.464110 -29.461346 -1.935807 -0.252843 -47.489293 5.776677 -8.094871 -15.730606 -16.274767 -0.648322 -3.616269 2.832871 0.537160 -0.001810 0.058270 0.112810 8.170798 12.186321 6.831090 2.661653 2.200147 -8.137658 -38.849448 28.505475 -8.124894 2.095859 -1.356342 -0.130020 0.235220 0.103400 -0.145610 
-0.159630 17.146340 -3.859900 -6.248777 -19.275902 1.929525 -15.156160 13.735259 3.654190 9.490828 -1.267775 -25.118830 -11.836024 8.441697 20.029962 -0.208804 4.938988 2.790186 0.191020 -0.017010 0.109210 18.114120 -10.306021 3.259974 3.872823 2.838656 -11.744853 8.049072 -4.791365 14.079874 -0.298461 -2.984341 3.419640 -0.091070 0.152890 0.165140 -3.049210 -3.095563 -8.391051 15.074536 -0.899239 28.286541 -9.740586 5.895647 -3.487613 10.371077 -7.071080 -10.878635 -15.115594 6.943787 40.974155 -6.859820 4.045400 -10.848220 -29.169372 -2.460997 -0.127828 -48.377074 5.262312 -8.036867 -15.030630 -16.091228 -0.684298 -3.624366 2.827256 0.534560 -0.010250 0.067210 0.101540 7.907917 13.340057 7.329291 6.070017 1.099125 -9.747497 -46.730831 30.142055 -11.244356 2.074124 -1.375114 -0.113350 0.215740 0.110530 -0.141110 
